<svg width="235" height="30" viewBox="0 0 235 30" fill="none" xmlns="http://www.w3.org/2000/svg">
<path d="M0.771878 29.0752H10.8119C12.5985 29.0752 14.1052 28.8485 15.3319 28.3952C16.5585 27.9152 17.5452 27.3019 18.2919 26.5552C19.0385 25.8085 19.5719 24.9685 19.8919 24.0352C20.2385 23.0752 20.4119 22.1152 20.4119 21.1552C20.4119 19.6352 20.0785 18.4219 19.4119 17.5152C18.7719 16.6085 17.9985 15.9152 17.0919 15.4352C16.1852 14.9552 15.2519 14.6352 14.2919 14.4752C13.3319 14.3152 12.5585 14.2219 11.9719 14.1952V14.0352C12.9052 14.0352 13.7852 13.8619 14.6119 13.5152C15.4385 13.1419 16.1585 12.6752 16.7719 12.1152C17.4119 11.5285 17.9185 10.8619 18.2919 10.1152C18.6652 9.34186 18.8519 8.52853 18.8519 7.67519C18.8519 6.92853 18.6919 6.16853 18.3719 5.3952C18.0519 4.62186 17.5585 3.91519 16.8919 3.27519C16.2519 2.63519 15.4119 2.11519 14.3719 1.71519C13.3585 1.28853 12.1585 1.07519 10.7719 1.07519H0.771878V29.0752ZM4.41188 27.3152V15.0752H8.81188C10.1185 15.0752 11.2519 15.2485 12.2119 15.5952C13.1719 15.9419 13.9585 16.4085 14.5719 16.9952C15.2119 17.5819 15.6785 18.2619 15.9719 19.0352C16.2919 19.8085 16.4519 20.6219 16.4519 21.4752C16.4519 22.4085 16.2785 23.2352 15.9319 23.9552C15.6119 24.6752 15.1719 25.2885 14.6119 25.7952C14.0519 26.3019 13.3852 26.6885 12.6119 26.9552C11.8652 27.1952 11.0652 27.3152 10.2119 27.3152H4.41188ZM4.41188 13.3152V2.83519H9.29188C10.3319 2.83519 11.2119 2.98186 11.9319 3.27519C12.6785 3.56853 13.2785 3.95519 13.7319 4.43519C14.2119 4.91519 14.5585 5.46186 14.7719 6.07519C14.9852 6.68853 15.0919 7.30186 15.0919 7.91519C15.0919 8.68853 14.9319 9.40853 14.6119 10.0752C14.3185 10.7419 13.8919 11.3152 13.3319 11.7952C12.7985 12.2752 12.1719 12.6485 11.4519 12.9152C10.7585 13.1819 10.0119 13.3152 9.21188 13.3152H4.41188ZM49.8172 1.07519V29.0752H53.4572V16.7152H55.2172C55.9639 16.7152 56.5772 16.7819 57.0572 16.9152C57.5639 17.0485 58.0172 17.2752 58.4172 17.5952C58.8172 17.9152 59.1905 18.3285 59.5372 18.8352C59.8839 19.3419 60.2972 19.9685 60.7772 20.7152L63.9372 25.3952C64.3372 26.0085 64.7239 26.5685 65.0972 27.0752C65.4972 27.5819 65.9239 28.0219 66.3772 28.3952C66.8305 28.7419 67.3372 29.0219 67.8972 29.2352C68.4839 29.4485 69.1772 29.5552 69.9772 29.5552C70.5639 29.5552 71.0439 29.5285 71.4172 29.4752C71.7905 29.4219 72.1639 29.2885 72.5372 29.0752V27.5952C72.4039 27.6219 72.2705 27.6485 72.1372 27.6752C72.0039 27.6752 71.8705 27.6752 71.7372 27.6752C71.1772 27.6752 70.6839 27.5952 70.2572 27.4352C69.8305 27.2752 69.4305 27.0485 69.0572 26.7552C68.6839 26.4352 68.3239 26.0619 67.9772 25.6352C67.6305 25.1819 67.2705 24.6752 66.8972 24.1152C65.7772 22.4885 64.9105 21.1952 64.2972 20.2352C63.6839 19.2485 63.1905 18.4885 62.8172 17.9552C62.4705 17.4219 62.1772 17.0352 61.9372 16.7952C61.7239 16.5552 61.4572 16.3552 61.1372 16.1952L60.7372 15.9952V15.8352C62.0172 15.7552 63.1105 15.4752 64.0172 14.9952C64.9505 14.5152 65.7105 13.9152 66.2972 13.1952C66.8839 12.4752 67.3105 11.7019 67.5772 10.8752C67.8439 10.0219 67.9772 9.19519 67.9772 8.39519C67.9772 7.67519 67.8305 6.88853 67.5372 6.03519C67.2705 5.18186 66.7905 4.39519 66.0972 3.67519C65.4305 2.92853 64.5105 2.31519 63.3372 1.83519C62.1639 1.32853 60.6839 1.07519 58.8972 1.07519H49.8172ZM53.4572 2.83519H57.4972C58.5105 2.83519 59.4172 2.98186 60.2172 3.27519C61.0439 3.56853 61.7505 3.98186 62.3372 4.51519C62.9239 5.02186 63.3639 5.63519 63.6572 6.35519C63.9772 7.07519 64.1372 7.86186 64.1372 8.7152C64.1372 9.43519 63.9905 10.1685 63.6972 10.9152C63.4305 11.6352 63.0172 12.3019 62.4572 12.9152C61.8972 13.5019 61.2039 13.9819 60.3772 14.3552C59.5772 14.7285 58.6439 14.9152 57.5772 14.9152H53.4572V2.83519ZM116.688 20.8352L120.528 29.0752H124.408L111.368 1.07519H109.368L97.5281 29.0752H99.3681L102.888 20.8352H116.688ZM115.848 19.0352H103.648L109.408 5.5552H109.568L115.848 19.0352ZM175.585 1.07519V22.4752H175.425L153.225 0.595195H153.025V29.0752H154.865V7.67519H155.025L177.225 29.5552H177.425V1.07519H175.585ZM210.009 29.0752V1.07519H219.209C221.423 1.07519 223.449 1.43519 225.289 2.15519C227.129 2.84853 228.703 3.82186 230.009 5.07519C231.343 6.30186 232.369 7.76853 233.089 9.47519C233.836 11.1819 234.209 13.0219 234.209 14.9952C234.209 17.0485 233.823 18.9419 233.049 20.6752C232.303 22.3819 231.263 23.8619 229.929 25.1152C228.623 26.3685 227.089 27.3419 225.329 28.0352C223.569 28.7285 221.689 29.0752 219.689 29.0752H210.009ZM213.649 27.3152H218.049C220.236 27.3152 222.089 26.9552 223.609 26.2352C225.156 25.4885 226.423 24.5285 227.409 23.3552C228.396 22.1819 229.116 20.8752 229.569 19.4352C230.023 17.9685 230.249 16.5152 230.249 15.0752C230.249 13.4752 229.983 11.9419 229.449 10.4752C228.916 8.98186 228.129 7.67519 227.089 6.55519C226.076 5.40853 224.809 4.50186 223.289 3.83519C221.769 3.16853 220.023 2.83519 218.049 2.83519H213.649V27.3152Z" fill="#030211"/>
</svg>
