<svg width="145" height="15" viewBox="0 0 145 15" fill="none" xmlns="http://www.w3.org/2000/svg">
<path d="M8.32115 0.832195V2.23819H2.56415V6.7032H7.23815V8.1092H2.56415V14.0752H0.835147V0.832195H8.32115ZM27.1484 14.2082C25.9197 14.2082 24.7987 13.9232 23.7854 13.3532C22.772 12.7705 21.9677 11.9662 21.3724 10.9402C20.7897 9.90153 20.4984 8.7362 20.4984 7.4442C20.4984 6.15219 20.7897 4.99319 21.3724 3.9672C21.9677 2.92853 22.772 2.12419 23.7854 1.55419C24.7987 0.971528 25.9197 0.680194 27.1484 0.680194C28.3897 0.680194 29.517 0.971528 30.5304 1.55419C31.5437 2.12419 32.3417 2.92219 32.9244 3.94819C33.507 4.97419 33.7984 6.13953 33.7984 7.4442C33.7984 8.74886 33.507 9.9142 32.9244 10.9402C32.3417 11.9662 31.5437 12.7705 30.5304 13.3532C29.517 13.9232 28.3897 14.2082 27.1484 14.2082ZM27.1484 12.7072C28.073 12.7072 28.9027 12.4919 29.6374 12.0612C30.3847 11.6305 30.9674 11.0162 31.3854 10.2182C31.816 9.4202 32.0314 8.49553 32.0314 7.4442C32.0314 6.38019 31.816 5.45553 31.3854 4.67019C30.9674 3.87219 30.391 3.25786 29.6564 2.8272C28.9217 2.39653 28.0857 2.18119 27.1484 2.18119C26.211 2.18119 25.375 2.39653 24.6404 2.8272C23.9057 3.25786 23.323 3.87219 22.8924 4.67019C22.4744 5.45553 22.2654 6.38019 22.2654 7.4442C22.2654 8.49553 22.4744 9.4202 22.8924 10.2182C23.323 11.0162 23.9057 11.6305 24.6404 12.0612C25.3877 12.4919 26.2237 12.7072 27.1484 12.7072ZM53.7889 14.0752L50.6349 8.66019H48.5449V14.0752H46.8159V0.832195H51.0909C52.0916 0.832195 52.9339 1.00319 53.6179 1.34519C54.3146 1.6872 54.8339 2.14953 55.1759 2.7322C55.5179 3.31486 55.6889 3.97986 55.6889 4.7272C55.6889 5.6392 55.4229 6.44353 54.8909 7.1402C54.3716 7.83686 53.5862 8.2992 52.5349 8.52719L55.8599 14.0752H53.7889ZM48.5449 7.2732H51.0909C52.0282 7.2732 52.7312 7.0452 53.1999 6.58919C53.6686 6.12053 53.9029 5.49986 53.9029 4.7272C53.9029 3.94186 53.6686 3.33386 53.1999 2.9032C52.7439 2.47253 52.0409 2.25719 51.0909 2.25719H48.5449V7.2732ZM77.2615 0.832195V2.23819H73.6515V14.0752H71.9225V2.23819H68.2935V0.832195H77.2615ZM91.8158 0.832195V9.2112C91.8158 10.3892 92.1008 11.2632 92.6708 11.8332C93.2534 12.4032 94.0578 12.6882 95.0838 12.6882C96.0971 12.6882 96.8888 12.4032 97.4588 11.8332C98.0414 11.2632 98.3328 10.3892 98.3328 9.2112V0.832195H100.062V9.1922C100.062 10.2942 99.8401 11.2252 99.3968 11.9852C98.9534 12.7325 98.3518 13.2899 97.5918 13.6572C96.8444 14.0245 96.0021 14.2082 95.0648 14.2082C94.1274 14.2082 93.2788 14.0245 92.5188 13.6572C91.7714 13.2899 91.1761 12.7325 90.7328 11.9852C90.3021 11.2252 90.0868 10.2942 90.0868 9.1922V0.832195H91.8158ZM124.093 14.0752H122.364L115.41 3.5302V14.0752H113.681V0.813195H115.41L122.364 11.3392V0.813195H124.093V14.0752ZM139.504 2.23819V6.6652H144.33V8.09019H139.504V12.6502H144.9V14.0752H137.775V0.813195H144.9V2.23819H139.504Z" fill="white"/>
</svg>
