<svg width="88" height="40" viewBox="0 0 88 40" fill="none" xmlns="http://www.w3.org/2000/svg">
<path d="M13.4809 0.511193H17.3869V39.0752H12.7369L4.73885 9.19119V39.0752H0.832852V0.511193H5.79285L13.4809 29.3412V0.511193ZM25.0719 0.511193H31.3959C34.6613 0.511193 36.2939 2.14386 36.2939 5.40919V34.1772C36.2939 37.4425 34.6613 39.0752 31.3959 39.0752H25.0719C21.8066 39.0752 20.1739 37.4425 20.1739 34.1772V5.40919C20.1739 2.14386 21.8066 0.511193 25.0719 0.511193ZM32.0779 33.4952V6.09119C32.0779 5.26453 31.9539 4.74786 31.7059 4.54119C31.4579 4.29319 30.9413 4.16919 30.1559 4.16919H26.3119C25.5266 4.16919 25.0099 4.29319 24.7619 4.54119C24.5139 4.74786 24.3899 5.26453 24.3899 6.09119V33.4952C24.3899 34.3219 24.5139 34.8592 24.7619 35.1072C25.0099 35.3139 25.5266 35.4172 26.3119 35.4172H30.1559C30.9413 35.4172 31.4579 35.3139 31.7059 35.1072C31.9539 34.8592 32.0779 34.3219 32.0779 33.4952ZM43.3217 22.9552V39.0752H39.1057V0.511193H50.3277C53.5931 0.511193 55.2257 2.14386 55.2257 5.40919V18.0572C55.2257 20.9919 53.9444 22.6039 51.3817 22.8932L57.2097 39.0752H52.6217L46.9797 22.9552H43.3217ZM43.3217 4.16919V19.2972H49.0877C49.9144 19.2972 50.4311 19.1939 50.6377 18.9872C50.8857 18.7392 51.0097 18.2019 51.0097 17.3752V6.09119C51.0097 5.26453 50.8857 4.74786 50.6377 4.54119C50.4311 4.29319 49.9144 4.16919 49.0877 4.16919H43.3217ZM71.4857 0.511193V4.16919H65.2857V39.0752H61.0697V4.16919H54.8697V0.511193H71.4857ZM76.0936 0.511193H82.4176C85.6829 0.511193 87.3156 2.14386 87.3156 5.40919V34.1772C87.3156 37.4425 85.6829 39.0752 82.4176 39.0752H76.0936C72.8283 39.0752 71.1956 37.4425 71.1956 34.1772V5.40919C71.1956 2.14386 72.8283 0.511193 76.0936 0.511193ZM83.0996 33.4952V6.09119C83.0996 5.26453 82.9756 4.74786 82.7276 4.54119C82.4796 4.29319 81.9629 4.16919 81.1776 4.16919H77.3336C76.5483 4.16919 76.0316 4.29319 75.7836 4.54119C75.5356 4.74786 75.4116 5.26453 75.4116 6.09119V33.4952C75.4116 34.3219 75.5356 34.8592 75.7836 35.1072C76.0316 35.3139 76.5483 35.4172 77.3336 35.4172H81.1776C81.9629 35.4172 82.4796 35.3139 82.7276 35.1072C82.9756 34.8592 83.0996 34.3219 83.0996 33.4952Z" fill="#030211"/>
</svg>
