<svg width="173" height="38" viewBox="0 0 173 38" fill="none" xmlns="http://www.w3.org/2000/svg">
<path d="M0.523438 6.08691C0.523438 4.43327 0.985677 3.04655 1.91016 1.92676C2.83464 0.806966 4.04557 0.24707 5.54297 0.24707C7.05339 0.24707 8.26432 0.813477 9.17578 1.94629C10.1003 3.06608 10.5625 4.44629 10.5625 6.08691C10.5625 7.71452 10.1003 9.09473 9.17578 10.2275C8.26432 11.3473 7.05339 11.9072 5.54297 11.9072C4.04557 11.9072 2.83464 11.3473 1.91016 10.2275C0.985677 9.10775 0.523438 7.72754 0.523438 6.08691ZM1.57812 6.06738C1.57812 7.34342 1.92969 8.47624 2.63281 9.46582C3.34896 10.4424 4.31901 10.9307 5.54297 10.9307C6.76693 10.9307 7.73047 10.4489 8.43359 9.48535C9.14974 8.50879 9.50781 7.36947 9.50781 6.06738C9.50781 4.75228 9.14974 3.61947 8.43359 2.66895C7.71745 1.7054 6.75391 1.22363 5.54297 1.22363C4.29297 1.22363 3.31641 1.71842 2.61328 2.70801C1.92318 3.68457 1.57812 4.80436 1.57812 6.06738ZM23.1711 0.579102H27.5461V1.49707H25.5539V7.00488C25.5539 8.18978 25.6776 9.03613 25.925 9.54395C26.3677 10.4684 27.2401 10.9307 28.5422 10.9307C29.8964 10.9307 30.7818 10.5205 31.1984 9.7002C31.4589 9.23145 31.5891 8.39811 31.5891 7.2002V1.49707H29.5969V0.579102H33.9719V1.49707H32.5656V7.2002C32.5656 8.73665 32.3312 9.8304 31.8625 10.4814C31.6021 10.846 31.1854 11.1781 30.6125 11.4775C30.0396 11.764 29.356 11.9072 28.5617 11.9072C27.0643 11.9072 25.9576 11.3994 25.2414 10.3838C24.7987 9.74577 24.5773 8.61947 24.5773 7.00488V1.49707H23.1711V0.579102ZM46.893 0.579102H56.268L56.6 5.18848L55.6625 5.30566L55.3891 1.49707H52.0687V10.6572H54.432V11.5752H48.7289V10.6572H51.0922V1.49707H47.7719L47.4984 5.30566L46.5609 5.18848L46.893 0.579102ZM69.5797 6.08691C69.5797 4.43327 70.0419 3.04655 70.9664 1.92676C71.8909 0.806966 73.1018 0.24707 74.5992 0.24707C76.1096 0.24707 77.3206 0.813477 78.232 1.94629C79.1565 3.06608 79.6188 4.44629 79.6188 6.08691C79.6188 7.71452 79.1565 9.09473 78.232 10.2275C77.3206 11.3473 76.1096 11.9072 74.5992 11.9072C73.1018 11.9072 71.8909 11.3473 70.9664 10.2275C70.0419 9.10775 69.5797 7.72754 69.5797 6.08691ZM70.6344 6.06738C70.6344 7.34342 70.9859 8.47624 71.6891 9.46582C72.4052 10.4424 73.3753 10.9307 74.5992 10.9307C75.8232 10.9307 76.7867 10.4489 77.4898 9.48535C78.206 8.50879 78.5641 7.36947 78.5641 6.06738C78.5641 4.75228 78.206 3.61947 77.4898 2.66895C76.7737 1.7054 75.8102 1.22363 74.5992 1.22363C73.3492 1.22363 72.3727 1.71842 71.6695 2.70801C70.9794 3.68457 70.6344 4.80436 70.6344 6.06738ZM93.1648 0.579102H102.325L102.423 4.09473H101.544L101.309 1.49707H95.7234V5.30566H98.8875V3.87988H99.7859V7.62988H98.8875V6.22363H95.7234V10.6572H98.2625V11.5752H93.1648V10.6572H94.7469V1.49707H93.1648V0.579102ZM115.949 0.579102H125.324L125.656 5.18848L124.719 5.30566L124.445 1.49707H121.125V10.6572H123.488V11.5752H117.785V10.6572H120.148V1.49707H116.828L116.555 5.30566L115.617 5.18848L115.949 0.579102ZM138.558 0.579102H142.464V1.49707H140.999V5.44238H146.312V1.49707H144.847V0.579102H148.773V1.49707H147.288V10.6572H148.773V11.5752H144.847V10.6572H146.312V6.36035H140.999V10.6572H142.464V11.5752H138.558V10.6572H140.023V1.49707H138.558V0.579102ZM161.928 0.579102H171.205L171.284 4.17285H170.385L170.19 1.49707H164.565V5.30566H167.729V3.87988H168.627V7.62988H167.729V6.22363H164.565V10.6572H170.385L170.483 7.98145H171.381V11.5752H161.928V10.6572H163.588V1.49707H161.928V0.579102ZM8.70703 26.3643H9.58594C9.46875 26.8721 9.41016 27.3408 9.41016 27.7705C9.41016 28.3695 9.46875 29.1442 9.58594 30.0947L8.70703 30.251C8.60286 29.4827 8.40104 28.8708 8.10156 28.415C7.58073 27.6208 6.75391 27.2236 5.62109 27.2236C4.68359 27.2236 3.95443 27.4645 3.43359 27.9463C2.92578 28.4281 2.67188 28.9554 2.67188 29.5283C2.67188 29.945 2.76953 30.2965 2.96484 30.583C3.17318 30.8695 3.45964 31.0843 3.82422 31.2275C4.20182 31.3577 4.50781 31.4489 4.74219 31.501C4.97656 31.54 5.27604 31.5791 5.64062 31.6182C6.46094 31.7093 7.0599 31.8005 7.4375 31.8916C7.82812 31.9697 8.17969 32.113 8.49219 32.3213C9.29948 32.8682 9.70312 33.6234 9.70312 34.5869C9.70312 35.6416 9.29948 36.4619 8.49219 37.0479C7.6849 37.6208 6.75391 37.9072 5.69922 37.9072C4.63151 37.9072 3.73958 37.6077 3.02344 37.0088C2.97135 36.9567 2.91927 36.9307 2.86719 36.9307C2.80208 36.9307 2.73698 36.9827 2.67188 37.0869C2.61979 37.2432 2.5612 37.5361 2.49609 37.9658H1.61719C1.73438 37.4059 1.79297 36.8265 1.79297 36.2275C1.79297 35.9411 1.73438 35.251 1.61719 34.1572H2.49609C2.65234 34.9385 2.8737 35.5179 3.16016 35.8955C3.68099 36.5856 4.48177 36.9307 5.5625 36.9307C6.64323 36.9307 7.42448 36.7028 7.90625 36.2471C8.40104 35.7913 8.64844 35.264 8.64844 34.665C8.64844 34.3395 8.58333 34.0596 8.45312 33.8252C8.32292 33.5778 8.16667 33.389 7.98438 33.2588C7.8151 33.1156 7.58724 32.9984 7.30078 32.9072C7.02734 32.8161 6.79948 32.7575 6.61719 32.7314C6.4349 32.7054 6.20703 32.6794 5.93359 32.6533C5.49089 32.6143 5.13281 32.5752 4.85938 32.5361C4.59896 32.4971 4.23438 32.4059 3.76562 32.2627C3.3099 32.1195 2.94531 31.9502 2.67188 31.7549C2.39844 31.5596 2.15104 31.2796 1.92969 30.915C1.72135 30.5374 1.61719 30.1012 1.61719 29.6064C1.61719 28.695 1.98828 27.9072 2.73047 27.2432C3.48568 26.5791 4.41016 26.2471 5.50391 26.2471C6.44141 26.2471 7.2487 26.514 7.92578 27.0479C8.17318 27.2301 8.32292 27.3213 8.375 27.3213C8.45312 27.3213 8.50521 27.2887 8.53125 27.2236C8.55729 27.1585 8.60286 26.9567 8.66797 26.6182C8.69401 26.514 8.70703 26.4294 8.70703 26.3643ZM24.9094 26.5791H29.1086L33.2297 36.6572H34.2258V37.5752H30.2219V36.6572H32.2141L31.1008 33.9424H26.0031L24.9094 36.6572H26.9016V37.5752H22.8977V36.6572H23.9328L27.7023 27.4971H24.9094V26.5791ZM30.7687 33.083L28.5617 27.7314L26.3547 33.083H30.7687ZM46.268 26.5791H49.6078L54.7445 36.7549H55.0961V27.4971H52.9086V26.5791H57.2641V27.4971H55.9945V37.8291H54.2562L49.0219 27.4971H48.6898V36.6572H50.8969V37.5752H46.268V36.6572H47.7914V27.4971H46.268V26.5791ZM69.4039 26.5791H74.2867C75.2633 26.5791 76.051 26.6702 76.65 26.8525C77.249 27.0348 77.7958 27.432 78.2906 28.0439C79.0979 29.0465 79.5016 30.3226 79.5016 31.8721C79.5016 33.8903 78.9612 35.4137 77.8805 36.4424C77.0862 37.1976 75.8622 37.5752 74.2086 37.5752H69.4039V36.6572H70.9469V27.4971H69.4039V26.5791ZM74.3063 27.4971H71.9234V36.6572H74.2086C75.5367 36.6572 76.5133 36.3512 77.1383 35.7393C78.0107 34.8669 78.4469 33.5973 78.4469 31.9307C78.4469 30.6676 78.1409 29.613 77.5289 28.7666C77.1513 28.2327 76.7281 27.8877 76.2594 27.7314C75.7906 27.5752 75.1396 27.4971 74.3063 27.4971ZM116.379 26.5791H121.711C122.974 26.5791 123.911 26.8525 124.523 27.3994C125.135 27.9463 125.441 28.6169 125.441 29.4111C125.441 30.4919 124.927 31.2992 123.898 31.833C125.383 32.2757 126.125 33.1872 126.125 34.5674C126.125 35.1012 125.995 35.5895 125.734 36.0322C125.487 36.4749 125.155 36.807 124.738 37.0283C124.322 37.2497 123.905 37.3994 123.488 37.4775C123.072 37.5426 122.421 37.5752 121.535 37.5752H116.379V36.6572H118V27.4971H116.379V26.5791ZM121.672 27.4971H118.977V31.4033H121.574C122.173 31.4033 122.681 31.3317 123.098 31.1885C123.514 31.0322 123.807 30.8369 123.977 30.6025C124.146 30.3682 124.263 30.1533 124.328 29.958C124.393 29.7627 124.426 29.5674 124.426 29.3721C124.426 28.9424 124.309 28.5843 124.074 28.2979C123.853 28.0114 123.553 27.8226 123.176 27.7314C122.798 27.6273 122.505 27.5622 122.297 27.5361C122.102 27.5101 121.893 27.4971 121.672 27.4971ZM121.418 32.3213H118.977V36.6572H121.496C121.822 36.6572 122.076 36.6572 122.258 36.6572C122.44 36.6442 122.694 36.6182 123.02 36.5791C123.358 36.54 123.625 36.4814 123.82 36.4033C124.029 36.3122 124.243 36.195 124.465 36.0518C124.686 35.8955 124.849 35.6937 124.953 35.4463C125.057 35.1989 125.109 34.9059 125.109 34.5674C125.109 33.7992 124.777 33.2327 124.113 32.8682C123.449 32.5036 122.551 32.3213 121.418 32.3213ZM139.359 32.0869C139.359 30.4333 139.821 29.0465 140.745 27.9268C141.67 26.807 142.881 26.2471 144.378 26.2471C145.889 26.2471 147.099 26.8135 148.011 27.9463C148.935 29.0661 149.398 30.4463 149.398 32.0869C149.398 33.7145 148.935 35.0947 148.011 36.2275C147.099 37.3473 145.889 37.9072 144.378 37.9072C142.881 37.9072 141.67 37.3473 140.745 36.2275C139.821 35.1077 139.359 33.7275 139.359 32.0869ZM140.413 32.0674C140.413 33.3434 140.765 34.4762 141.468 35.4658C142.184 36.4424 143.154 36.9307 144.378 36.9307C145.602 36.9307 146.566 36.4489 147.269 35.4854C147.985 34.5088 148.343 33.3695 148.343 32.0674C148.343 30.7523 147.985 29.6195 147.269 28.6689C146.553 27.7054 145.589 27.2236 144.378 27.2236C143.128 27.2236 142.152 27.7184 141.448 28.708C140.758 29.6846 140.413 30.8044 140.413 32.0674ZM162.553 26.5791H166.342V27.4971H164.741L167.416 31.0713L170.151 27.4971H168.666V26.5791H172.241V27.4971H171.245L167.963 31.7939L171.596 36.6572H172.612V37.5752H168.666V36.6572H170.424L167.416 32.5166L164.272 36.6572H166.342V37.5752H162.182V36.6572H163.178L166.87 31.7939L163.588 27.4971H162.553V26.5791Z" fill="#030211"/>
</svg>
