<svg width="126" height="38" viewBox="0 0 126 38" fill="none" xmlns="http://www.w3.org/2000/svg">
<path d="M3.78516 8.22681V12.0842C3.78516 12.9176 3.8763 13.4351 4.05859 13.637C4.30599 13.9234 4.68034 14.0667 5.18164 14.0667H5.68945V14.428H0.015625V14.0667H0.513672C1.07357 14.0667 1.47396 13.8844 1.71484 13.5198C1.84505 13.318 1.91016 12.8394 1.91016 12.0842V3.52954C1.91016 2.69621 1.82227 2.17863 1.64648 1.97681C1.39258 1.69035 1.01497 1.54712 0.513672 1.54712H0.015625V1.18579H4.86914C6.05404 1.18579 6.98828 1.30949 7.67188 1.55688C8.35547 1.79777 8.93164 2.20793 9.40039 2.78735C9.86914 3.36678 10.1035 4.05363 10.1035 4.8479C10.1035 5.92863 9.74544 6.80754 9.0293 7.48462C8.31966 8.1617 7.3138 8.50024 6.01172 8.50024C5.69271 8.50024 5.34766 8.47746 4.97656 8.43188C4.60547 8.38631 4.20833 8.31795 3.78516 8.22681ZM3.78516 7.67017C4.13021 7.73527 4.4362 7.7841 4.70312 7.81665C4.97005 7.8492 5.19792 7.86548 5.38672 7.86548C6.0638 7.86548 6.64648 7.60506 7.13477 7.08423C7.62956 6.55688 7.87695 5.87655 7.87695 5.04321C7.87695 4.4703 7.75977 3.9397 7.52539 3.45142C7.29102 2.95662 6.95898 2.58879 6.5293 2.3479C6.09961 2.1005 5.61133 1.97681 5.06445 1.97681C4.73242 1.97681 4.30599 2.03866 3.78516 2.16235V7.67017ZM29.4309 0.883057C31.1496 0.883057 32.6372 1.53735 33.8937 2.84595C35.1568 4.14803 35.7883 5.77563 35.7883 7.72876C35.7883 9.74048 35.1535 11.4104 33.884 12.7385C32.6145 14.0667 31.078 14.7307 29.2746 14.7307C27.4517 14.7307 25.9185 14.0829 24.675 12.7874C23.438 11.4918 22.8195 9.81535 22.8195 7.75806C22.8195 5.65519 23.5357 3.9397 24.968 2.61157C26.2115 1.45923 27.6991 0.883057 29.4309 0.883057ZM29.2453 1.59595C28.0604 1.59595 27.1099 2.0354 26.3937 2.91431C25.5018 4.00806 25.0559 5.60962 25.0559 7.71899C25.0559 9.88045 25.5181 11.5439 26.4426 12.7092C27.1522 13.5946 28.0897 14.0374 29.2551 14.0374C30.4986 14.0374 31.524 13.5523 32.3312 12.5823C33.1451 11.6122 33.552 10.0823 33.552 7.99243C33.552 5.72681 33.106 4.03735 32.2141 2.92407C31.4979 2.03866 30.5083 1.59595 29.2453 1.59595ZM54.0414 14.0667V14.428H48.3676V14.0667H48.8363C49.3832 14.0667 49.7803 13.9071 50.0277 13.5881C50.184 13.3798 50.2621 12.8785 50.2621 12.0842V3.52954C50.2621 2.85897 50.2198 2.41626 50.1352 2.20142C50.0701 2.03866 49.9366 1.89868 49.7348 1.78149C49.4483 1.62524 49.1488 1.54712 48.8363 1.54712H48.3676V1.18579H54.0414V1.54712H53.5629C53.0225 1.54712 52.6286 1.70662 52.3812 2.02563C52.2185 2.23397 52.1371 2.73527 52.1371 3.52954V12.0842C52.1371 12.7548 52.1794 13.1975 52.2641 13.4124C52.3292 13.5751 52.4659 13.7151 52.6742 13.8323C52.9542 13.9885 53.2504 14.0667 53.5629 14.0667H54.0414ZM65.566 1.18579H69.1598L77.2555 11.1174V3.48071C77.2555 2.66691 77.1643 2.1591 76.982 1.95728C76.7411 1.68384 76.3603 1.54712 75.8395 1.54712H75.3805V1.18579H79.9898V1.54712H79.5211C78.9612 1.54712 78.5641 1.71639 78.3297 2.05493C78.1865 2.26326 78.1148 2.73853 78.1148 3.48071V14.6428H77.7633L69.0328 3.97876V12.1331C69.0328 12.9469 69.1207 13.4547 69.2965 13.6565C69.5439 13.9299 69.9247 14.0667 70.4391 14.0667H70.9078V14.428H66.2984V14.0667H66.7574C67.3238 14.0667 67.7242 13.8974 67.9586 13.5588C68.1018 13.3505 68.1734 12.8752 68.1734 12.1331V2.92407C67.7893 2.47485 67.4964 2.17863 67.2945 2.0354C67.0992 1.89217 66.8095 1.75871 66.4254 1.63501C66.2366 1.57642 65.9501 1.54712 65.566 1.54712V1.18579ZM103.155 1.18579L103.302 4.29126H102.93C102.859 3.74438 102.761 3.35376 102.637 3.11938C102.436 2.74178 102.165 2.46509 101.827 2.28931C101.495 2.10701 101.055 2.01587 100.509 2.01587H98.6434V12.1331C98.6434 12.9469 98.7312 13.4547 98.907 13.6565C99.1544 13.9299 99.5353 14.0667 100.05 14.0667H100.509V14.428H94.8934V14.0667H95.3621C95.922 14.0667 96.3191 13.8974 96.5535 13.5588C96.6967 13.3505 96.7684 12.8752 96.7684 12.1331V2.01587H95.1766C94.5581 2.01587 94.1186 2.06144 93.8582 2.15259C93.5197 2.27629 93.2299 2.51392 92.9891 2.86548C92.7482 3.21704 92.6049 3.6923 92.5594 4.29126H92.1883L92.3445 1.18579H103.155ZM124.279 0.883057V5.46313H123.918C123.801 4.58423 123.589 3.88436 123.283 3.36353C122.984 2.84269 122.554 2.42928 121.994 2.12329C121.434 1.8173 120.855 1.66431 120.256 1.66431C119.579 1.66431 119.019 1.87264 118.576 2.28931C118.133 2.69946 117.912 3.16821 117.912 3.69556C117.912 4.0992 118.052 4.46704 118.332 4.79907C118.736 5.28735 119.696 5.9384 121.213 6.7522C122.45 7.41626 123.293 7.92733 123.742 8.2854C124.198 8.63696 124.546 9.05363 124.787 9.5354C125.035 10.0172 125.158 10.5217 125.158 11.0491C125.158 12.0517 124.768 12.9176 123.986 13.6467C123.212 14.3694 122.212 14.7307 120.988 14.7307C120.604 14.7307 120.243 14.7014 119.904 14.6428C119.702 14.6103 119.283 14.4931 118.645 14.2913C118.013 14.0829 117.613 13.9788 117.443 13.9788C117.281 13.9788 117.15 14.0276 117.053 14.1252C116.962 14.2229 116.893 14.4247 116.848 14.7307H116.486V10.1897H116.848C117.017 11.1402 117.245 11.8531 117.531 12.3284C117.818 12.7971 118.254 13.1877 118.84 13.5002C119.432 13.8127 120.08 13.969 120.783 13.969C121.597 13.969 122.238 13.7542 122.707 13.3245C123.182 12.8948 123.42 12.387 123.42 11.801C123.42 11.4755 123.329 11.1467 123.146 10.8147C122.971 10.4827 122.694 10.1734 122.316 9.88696C122.062 9.69165 121.369 9.27824 120.236 8.64673C119.104 8.00871 118.296 7.5009 117.814 7.12329C117.339 6.74569 116.978 6.32902 116.73 5.87329C116.483 5.41756 116.359 4.91626 116.359 4.36938C116.359 3.41886 116.724 2.60181 117.453 1.91821C118.182 1.22811 119.11 0.883057 120.236 0.883057C120.939 0.883057 121.685 1.05558 122.473 1.40063C122.837 1.5634 123.094 1.64478 123.244 1.64478C123.413 1.64478 123.55 1.59595 123.654 1.49829C123.765 1.39412 123.853 1.18905 123.918 0.883057H124.279ZM6.99805 23.8831C8.7168 23.8831 10.2044 24.5374 11.4609 25.8459C12.724 27.148 13.3555 28.7756 13.3555 30.7288C13.3555 32.7405 12.7207 34.4104 11.4512 35.7385C10.1816 37.0667 8.64518 37.7307 6.8418 37.7307C5.01888 37.7307 3.48568 37.0829 2.24219 35.7874C1.00521 34.4918 0.386719 32.8153 0.386719 30.7581C0.386719 28.6552 1.10286 26.9397 2.53516 25.6116C3.77865 24.4592 5.26628 23.8831 6.99805 23.8831ZM6.8125 24.5959C5.6276 24.5959 4.67708 25.0354 3.96094 25.9143C3.06901 27.0081 2.62305 28.6096 2.62305 30.719C2.62305 32.8805 3.08529 34.5439 4.00977 35.7092C4.7194 36.5946 5.6569 37.0374 6.82227 37.0374C8.06576 37.0374 9.09115 36.5523 9.89844 35.5823C10.7122 34.6122 11.1191 33.0823 11.1191 30.9924C11.1191 28.7268 10.6732 27.0374 9.78125 25.9241C9.0651 25.0387 8.07552 24.5959 6.8125 24.5959ZM25.173 24.1858H28.7668L36.8625 34.1174V26.4807C36.8625 25.6669 36.7714 25.1591 36.5891 24.9573C36.3482 24.6838 35.9673 24.5471 35.4465 24.5471H34.9875V24.1858H39.5969V24.5471H39.1281C38.5682 24.5471 38.1711 24.7164 37.9367 25.0549C37.7935 25.2633 37.7219 25.7385 37.7219 26.4807V37.6428H37.3703L28.6398 26.9788V35.1331C28.6398 35.9469 28.7277 36.4547 28.9035 36.6565C29.1509 36.9299 29.5318 37.0667 30.0461 37.0667H30.5148V37.428H25.9055V37.0667H26.3645C26.9309 37.0667 27.3312 36.8974 27.5656 36.5588C27.7089 36.3505 27.7805 35.8752 27.7805 35.1331V25.9241C27.3964 25.4749 27.1034 25.1786 26.9016 25.0354C26.7062 24.8922 26.4165 24.7587 26.0324 24.635C25.8436 24.5764 25.5572 24.5471 25.173 24.5471V24.1858ZM55.3695 24.9084V30.1428H58.2797C59.0349 30.1428 59.5395 30.0289 59.7934 29.801C60.1319 29.5015 60.3207 28.9742 60.3598 28.219H60.7211V32.8284H60.3598C60.2686 32.1838 60.1775 31.7704 60.0863 31.5881C59.9691 31.3603 59.7771 31.1812 59.5102 31.051C59.2432 30.9208 58.8331 30.8557 58.2797 30.8557H55.3695V35.2209C55.3695 35.8069 55.3956 36.165 55.4477 36.2952C55.4997 36.4189 55.5909 36.5198 55.7211 36.5979C55.8513 36.6695 56.0987 36.7053 56.4633 36.7053H58.7094C59.4581 36.7053 60.0017 36.6532 60.3402 36.5491C60.6788 36.4449 61.0043 36.2398 61.3168 35.9338C61.7204 35.5302 62.1339 34.9215 62.557 34.1077H62.9477L61.8051 37.428H51.6V37.0667H52.0687C52.3812 37.0667 52.6775 36.9918 52.9574 36.842C53.1658 36.7379 53.3057 36.5816 53.3773 36.3733C53.4555 36.165 53.4945 35.7385 53.4945 35.094V26.4905C53.4945 25.6506 53.4099 25.1331 53.2406 24.9377C53.0062 24.6773 52.6156 24.5471 52.0687 24.5471H51.6V24.1858H61.8051L61.9516 27.0862H61.5707C61.434 26.3896 61.281 25.9111 61.1117 25.6506C60.949 25.3902 60.7048 25.1917 60.3793 25.0549C60.1189 24.9573 59.6599 24.9084 59.0023 24.9084H55.3695Z" fill="#030211"/>
</svg>
