<svg width="144" height="39" viewBox="0 0 144 39" fill="none" xmlns="http://www.w3.org/2000/svg">
<path d="M0.102852 9.51256H2.80285C2.85619 9.96589 3.06285 10.3792 3.42285 10.7526C3.79619 11.1126 4.28285 11.3992 4.88285 11.6126C5.48285 11.8126 6.15619 11.9126 6.90285 11.9126C7.58285 11.9126 8.14285 11.8392 8.58285 11.6926C9.02285 11.5459 9.34952 11.3392 9.56285 11.0726C9.77619 10.8059 9.88285 10.4859 9.88285 10.1126C9.88285 9.75256 9.74952 9.47923 9.48285 9.29256C9.21619 9.09256 8.79619 8.93256 8.22285 8.81256C7.64952 8.67922 6.89619 8.54589 5.96285 8.41256C5.22952 8.30589 4.53619 8.15922 3.88285 7.97256C3.22952 7.77256 2.64952 7.51923 2.14285 7.21256C1.64952 6.90589 1.25619 6.53256 0.962852 6.09256C0.682852 5.63922 0.542852 5.10589 0.542852 4.49256C0.542852 3.73256 0.756185 3.06589 1.18285 2.49256C1.62285 1.91922 2.26952 1.47256 3.12285 1.15256C3.97619 0.832558 5.02285 0.672558 6.26285 0.672558C8.12952 0.672558 9.56285 1.07256 10.5629 1.87256C11.5762 2.65922 12.0695 3.74589 12.0429 5.13256H9.44285C9.38952 4.34589 9.05619 3.77922 8.44285 3.43256C7.84285 3.08589 7.08285 2.91256 6.16285 2.91256C5.30952 2.91256 4.60285 3.03922 4.04285 3.29256C3.49619 3.54589 3.22285 3.97922 3.22285 4.59256C3.22285 4.83256 3.28952 5.04589 3.42285 5.23256C3.55619 5.40589 3.78285 5.55922 4.10285 5.69256C4.42285 5.82589 4.85619 5.95256 5.40285 6.07256C5.94952 6.19256 6.62952 6.31256 7.44285 6.43256C8.20285 6.53922 8.88952 6.68589 9.50285 6.87256C10.1295 7.04589 10.6629 7.27922 11.1029 7.57256C11.5562 7.85256 11.9029 8.21256 12.1429 8.65256C12.3829 9.09256 12.5029 9.63256 12.5029 10.2726C12.5029 11.0592 12.2962 11.7459 11.8829 12.3326C11.4829 12.9059 10.8562 13.3526 10.0029 13.6726C9.16285 13.9926 8.06952 14.1526 6.72285 14.1526C5.76285 14.1526 4.91619 14.0526 4.18285 13.8526C3.44952 13.6392 2.81619 13.3592 2.28285 13.0126C1.74952 12.6659 1.31619 12.2859 0.982852 11.8726C0.649518 11.4592 0.409518 11.0459 0.262852 10.6326C0.129518 10.2192 0.0761849 9.84589 0.102852 9.51256ZM25.0096 0.932558H38.6496V3.15256H25.0096V0.932558ZM30.5096 2.87256H33.1696V13.8726H30.5096V2.87256ZM63.7632 8.15256V0.932558H66.4232V8.43256C66.4232 9.28589 66.2965 10.0326 66.0432 10.6726C65.8032 11.3126 65.4565 11.8526 65.0032 12.2926C64.5498 12.7326 64.0165 13.0926 63.4032 13.3726C62.8032 13.6392 62.1432 13.8326 61.4232 13.9526C60.7165 14.0726 59.9698 14.1326 59.1832 14.1326C58.3698 14.1326 57.5965 14.0726 56.8632 13.9526C56.1298 13.8326 55.4565 13.6392 54.8432 13.3726C54.2432 13.0926 53.7232 12.7326 53.2832 12.2926C52.8432 11.8526 52.4965 11.3126 52.2432 10.6726C52.0032 10.0326 51.8832 9.28589 51.8832 8.43256V0.932558H54.5432V8.15256C54.5432 9.16589 54.7432 9.93923 55.1432 10.4726C55.5432 10.9926 56.0898 11.3526 56.7832 11.5526C57.4898 11.7392 58.2898 11.8326 59.1832 11.8326C60.0498 11.8326 60.8232 11.7392 61.5032 11.5526C62.1965 11.3526 62.7432 10.9926 63.1432 10.4726C63.5565 9.93923 63.7632 9.16589 63.7632 8.15256ZM88.2004 0.932558C89.6537 0.932558 90.867 1.10589 91.8404 1.45256C92.8137 1.79922 93.587 2.27256 94.1604 2.87256C94.747 3.45922 95.1604 4.13922 95.4004 4.91256C95.6537 5.68589 95.7804 6.49923 95.7804 7.35256C95.7804 8.20589 95.6404 9.02589 95.3604 9.81256C95.0937 10.5992 94.6604 11.2992 94.0604 11.9126C93.4737 12.5126 92.6937 12.9926 91.7204 13.3526C90.7604 13.6992 89.587 13.8726 88.2004 13.8726H80.8004V0.932558H88.2004ZM83.4604 11.5926H88.1404C89.1004 11.5926 89.8937 11.4792 90.5204 11.2526C91.1604 11.0126 91.667 10.6926 92.0404 10.2926C92.4137 9.89256 92.6804 9.43923 92.8404 8.93256C93.0004 8.42589 93.0804 7.89922 93.0804 7.35256C93.0804 6.80589 93.0004 6.28589 92.8404 5.79256C92.6804 5.29922 92.4137 4.85922 92.0404 4.47256C91.667 4.08589 91.1604 3.77922 90.5204 3.55256C89.8937 3.32589 89.1004 3.21256 88.1404 3.21256H83.4604V11.5926ZM110.058 0.932558H112.718V13.8726H110.058V0.932558ZM135.163 14.1326C133.443 14.1326 131.97 13.8659 130.743 13.3326C129.53 12.7859 128.596 12.0126 127.943 11.0126C127.303 10.0126 126.983 8.81256 126.983 7.41256C126.983 5.99922 127.303 4.79256 127.943 3.79256C128.596 2.79256 129.53 2.02589 130.743 1.49256C131.97 0.945891 133.443 0.672558 135.163 0.672558C136.896 0.672558 138.37 0.945891 139.583 1.49256C140.796 2.02589 141.723 2.79256 142.363 3.79256C143.016 4.79256 143.343 5.99922 143.343 7.41256C143.343 8.81256 143.016 10.0126 142.363 11.0126C141.723 12.0126 140.796 12.7859 139.583 13.3326C138.37 13.8659 136.896 14.1326 135.163 14.1326ZM135.163 11.8326C136.23 11.8326 137.163 11.6726 137.963 11.3526C138.776 11.0326 139.41 10.5459 139.863 9.89256C140.33 9.23923 140.563 8.41256 140.563 7.41256C140.563 6.41256 140.33 5.58589 139.863 4.93256C139.41 4.27922 138.776 3.79256 137.963 3.47256C137.163 3.13922 136.23 2.97256 135.163 2.97256C134.11 2.97256 133.17 3.13922 132.343 3.47256C131.516 3.79256 130.87 4.27922 130.403 4.93256C129.936 5.58589 129.703 6.41256 129.703 7.41256C129.703 8.41256 129.936 9.23923 130.403 9.89256C130.87 10.5459 131.516 11.0326 132.343 11.3526C133.17 11.6726 134.11 11.8326 135.163 11.8326ZM8.40285 38.1326C7.20285 38.1326 6.11619 37.9926 5.14285 37.7126C4.18285 37.4326 3.34952 37.0126 2.64285 36.4526C1.94952 35.8926 1.41618 35.1992 1.04285 34.3726C0.669518 33.5459 0.482852 32.5926 0.482852 31.5126C0.482852 30.4192 0.676185 29.4526 1.06285 28.6126C1.46285 27.7592 2.02285 27.0392 2.74285 26.4526C3.47619 25.8659 4.34285 25.4259 5.34285 25.1326C6.35619 24.8259 7.47619 24.6726 8.70285 24.6726C10.1562 24.6726 11.4095 24.8792 12.4629 25.2926C13.5162 25.6926 14.3429 26.2592 14.9429 26.9926C15.5562 27.7259 15.9029 28.5992 15.9829 29.6126H13.4229C13.2495 29.0792 12.9629 28.6192 12.5629 28.2326C12.1762 27.8326 11.6629 27.5259 11.0229 27.3126C10.3829 27.0859 9.60952 26.9726 8.70285 26.9726C7.54285 26.9726 6.54952 27.1592 5.72285 27.5326C4.90952 27.9059 4.28952 28.4326 3.86285 29.1126C3.43619 29.7926 3.22285 30.5926 3.22285 31.5126C3.22285 32.4059 3.40952 33.1792 3.78285 33.8326C4.15619 34.4726 4.72952 34.9659 5.50285 35.3126C6.28952 35.6592 7.28952 35.8326 8.50285 35.8326C9.43619 35.8326 10.2562 35.7126 10.9629 35.4726C11.6829 35.2192 12.2829 34.8859 12.7629 34.4726C13.2429 34.0459 13.5829 33.5726 13.7829 33.0526L14.8229 32.6726C14.6495 34.3926 13.9962 35.7326 12.8629 36.6926C11.7429 37.6526 10.2562 38.1326 8.40285 38.1326ZM14.1429 37.8726C14.1429 37.4592 14.1695 36.9859 14.2229 36.4526C14.2762 35.9059 14.3429 35.3592 14.4229 34.8126C14.5029 34.2526 14.5762 33.7392 14.6429 33.2726H8.72285V31.5726H16.4429V37.8726H14.1429ZM34.3441 37.8726V24.9326H43.1241C44.1241 24.9326 44.9908 25.0726 45.7241 25.3526C46.4708 25.6192 47.0508 26.0459 47.4641 26.6326C47.8774 27.2059 48.0841 27.9459 48.0841 28.8526C48.0841 29.4659 47.9774 29.9859 47.7641 30.4126C47.5508 30.8392 47.2508 31.1859 46.8641 31.4526C46.4908 31.7192 46.0574 31.9259 45.5641 32.0726C45.0708 32.2059 44.5441 32.2926 43.9841 32.3326L43.7041 32.1726C44.6374 32.1859 45.4041 32.2659 46.0041 32.4126C46.6041 32.5459 47.0508 32.7992 47.3441 33.1726C47.6508 33.5326 47.8041 34.0726 47.8041 34.7926V37.8726H45.1441V34.9726C45.1441 34.4792 45.0574 34.0992 44.8841 33.8326C44.7108 33.5526 44.3974 33.3592 43.9441 33.2526C43.5041 33.1459 42.8641 33.0926 42.0241 33.0926H37.0041V37.8726H34.3441ZM37.0041 31.0126H43.1241C43.8708 31.0126 44.4374 30.8326 44.8241 30.4726C45.2241 30.1126 45.4241 29.6259 45.4241 29.0126C45.4241 28.4259 45.2241 27.9792 44.8241 27.6726C44.4374 27.3659 43.8708 27.2126 43.1241 27.2126H37.0041V31.0126ZM68.6275 32.4726V35.6526H78.6075V37.8726H65.9675V24.9326H78.5875V27.1526H68.6275V30.3726H76.7875V32.4726H68.6275ZM99.0986 32.4726V35.6526H109.079V37.8726H96.4386V24.9326H109.059V27.1526H99.0986V30.3726H107.259V32.4726H99.0986ZM140.03 35.2326L139.19 35.5726V24.9326H141.85V37.8726H139.19L128.73 27.6526L129.57 27.3126V37.8726H126.91V24.9326H129.57L140.03 35.2326Z" fill="#030211"/>
</svg>
